HIERARCHY
ROOT Hips
{
	OFFSET 0.00000 0.00000 0.00000
	CHANNELS 6 Xposition Yposition Zposition Zrotation Yrotation Xrotation 
	JOINT LHipJoint
	{
		OFFSET 0 0 0
		CHANNELS 3 Zrotation Yrotation Xrotation
		JOINT LeftUpLeg
		{
			OFFSET 1.35324 -1.81393 0.86676
			CHANNELS 3 Zrotation Yrotation Xrotation
			JOINT LeftLeg
			{
				OFFSET 2.44396 -6.71474 0.00000
				CHANNELS 3 Zrotation Yrotation Xrotation
				JOINT LeftFoot
				{
					OFFSET 2.78389 -7.64869 0.00000
					CHANNELS 3 Zrotation Yrotation Xrotation
					JOINT LeftToeBase
					{
						OFFSET 0.15837 -0.43512 1.94704
						CHANNELS 3 Zrotation Yrotation Xrotation
						End Site
						{
							OFFSET 0.00000 -0.00000 1.00735
						}
					}
				}
			}
		}
	}
	JOINT RHipJoint
	{
		OFFSET 0 0 0
		CHANNELS 3 Zrotation Yrotation Xrotation
		JOINT RightUpLeg
		{
			OFFSET -1.14956 -1.81393 0.86676
			CHANNELS 3 Zrotation Yrotation Xrotation
			JOINT RightLeg
			{
				OFFSET -2.55632 -7.02343 0.00000
				CHANNELS 3 Zrotation Yrotation Xrotation
				JOINT RightFoot
				{
					OFFSET -2.63038 -7.22691 0.00000
					CHANNELS 3 Zrotation Yrotation Xrotation
					JOINT RightToeBase
					{
						OFFSET -0.22277 -0.61205 2.06087
						CHANNELS 3 Zrotation Yrotation Xrotation
						End Site
						{
							OFFSET -0.00000 -0.00000 1.07867
						}
					}
				}
			}
		}
	}
	JOINT LowerBack
	{
		OFFSET 0 0 0
		CHANNELS 3 Zrotation Yrotation Xrotation
		JOINT Spine
		{
			OFFSET -0.05682 2.18266 -0.21665
			CHANNELS 3 Zrotation Yrotation Xrotation
			JOINT Spine1
			{
				OFFSET 0.08791 2.18267 0.00700
				CHANNELS 3 Zrotation Yrotation Xrotation
				JOINT Neck
				{
					OFFSET 0 0 0
					CHANNELS 3 Zrotation Yrotation Xrotation
					JOINT Neck1
					{
						OFFSET -0.14851 1.58495 0.25390
						CHANNELS 3 Zrotation Yrotation Xrotation
						JOINT Head
						{
							OFFSET 0.13566 1.62237 -0.28476
							CHANNELS 3 Zrotation Yrotation Xrotation
							End Site
							{
								OFFSET 0.05601 1.65818 -0.12921
							}
						}
					}
				}
				JOINT LeftShoulder
				{
					OFFSET 0 0 0
					CHANNELS 3 Zrotation Yrotation Xrotation
					JOINT LeftArm
					{
						OFFSET 3.23337 0.97114 -0.51072
						CHANNELS 3 Zrotation Yrotation Xrotation
						JOINT LeftForeArm
						{
							OFFSET 5.19964 -0.00068 -0.00051
							CHANNELS 3 Zrotation Yrotation Xrotation
							JOINT LeftHand
							{
								OFFSET 3.32189 -0.00000 0.00000
								CHANNELS 3 Zrotation Yrotation Xrotation
								JOINT LeftFingerBase
								{
									OFFSET 0 0 0
									CHANNELS 3 Zrotation Yrotation Xrotation
									JOINT LeftHandIndex1
									{
										OFFSET 0.64562 -0.00000 0.00000
										CHANNELS 3 Zrotation Yrotation Xrotation
										End Site
										{
											OFFSET 0.52051 -0.00000 0.00000
										}
									}
								}
								JOINT LThumb
								{
									OFFSET 0 0 0
									CHANNELS 3 Zrotation Yrotation Xrotation
									End Site
									{
										OFFSET 0.52846 -0.00000 0.52846
									}
								}
							}
						}
					}
				}
				JOINT RightShoulder
				{
					OFFSET 0 0 0
					CHANNELS 3 Zrotation Yrotation Xrotation
					JOINT RightArm
					{
						OFFSET -2.95712 1.24697 -0.52388
						CHANNELS 3 Zrotation Yrotation Xrotation
						JOINT RightForeArm
						{
							OFFSET -5.65950 -0.00000 -0.00000
							CHANNELS 3 Zrotation Yrotation Xrotation
							JOINT RightHand
							{
								OFFSET -3.37604 -0.00000 -0.00000
								CHANNELS 3 Zrotation Yrotation Xrotation
								JOINT RightFingerBase
								{
									OFFSET 0 0 0
									CHANNELS 3 Zrotation Yrotation Xrotation
									JOINT RightHandIndex1
									{
										OFFSET -0.82470 -0.00000 -0.00000
										CHANNELS 3 Zrotation Yrotation Xrotation
										End Site
										{
											OFFSET -0.66490 -0.00000 -0.00000
										}
									}
								}
								JOINT RThumb
								{
									OFFSET 0 0 0
									CHANNELS 3 Zrotation Yrotation Xrotation
									End Site
									{
										OFFSET -0.67505 -0.00000 0.67505
									}
								}
							}
						}
					}
				}
			}
		}
	}
}
MOTION
Frames: 12
Frame Time: .0083333
10.4674 17.77 -18.1914 0 0 0 0 0 0 -21 0 0 0 0 0 0 0 0 0 0 0 0 0 0 21 0 0 0 0 0 0 0 0 0 0 0 0 0 0 0 0 0 0 0 0 0 0 -16 0 0 21 0 0 11 0 0 0 -8 0 0 0 0 0 0 0 0 0 0 0 0 0 0 0 0 0 0 0 0 8 0 0 0 0 0 0 0 0 0 0 0 0 0 0 0 0 0
10.4674 17.7700 -18.1914 -8.4567 -37.3715 7.7033 0.0000 0.0000 0.0000 -15.6172 -3.2309 -12.2205 3.9543 12.0993 36.0842 1.8713 0.5107 -26.0754 0.1155 2.1909 6.0335 0.0000 0.0000 0.0000 23.0352 9.1534 -12.5004 -3.9011 -12.0276 35.8297 -1.1933 -2.9332 -21.8820 -0.3230 -3.6532 10.1030 -2.3361 -0.2468 4.4911 4.6893 -0.3166 -1.4968 6.2413 -0.0449 -4.0402 -17.7371 -8.9753 -11.0524 13.4955 -11.7476 16.4966 6.0900 -5.5787 8.8482 0.0000 -0.0000 0.0000 -89.8102 0.4895 2.3512 13.5099 -22.0297 -2.6415 -0.0000 -0.0000 11.3305 0.9434 33.1172 0.5155 -7.1250 0.0000 -0.0000 -35.6496 59.3672 -13.5613 0.0000 -0.0000 0.0000 84.6382 -5.9126 -0.7818 -17.3798 27.3558 -4.2604 0.0000 -0.0000 -16.1157 -10.9104 16.2390 -3.0855 7.1250 -0.0000 -0.0000 11.2368 -13.6828 8.4269
10.4675 17.7686 -18.1944 -8.6228 -37.2759 7.7532 0.0000 0.0000 0.0000 -15.4084 -3.0843 -12.2510 3.9556 12.1011 36.0907 1.8716 0.3315 -26.0151 0.1058 2.0971 5.7741 0.0000 0.0000 0.0000 23.2234 9.1538 -12.4592 -3.9058 -12.0340 35.8525 -1.1991 -2.9687 -21.9489 -0.3496 -3.7990 10.5118 -2.1706 -0.2907 4.5839 4.7371 -0.3628 -1.5524 6.2034 -0.0684 -4.1455 -17.8965 -8.9262 -10.8628 13.6952 -11.7196 16.4389 6.1974 -5.5674 8.8128 0.0000 0.0000 0.0000 -89.7986 0.6099 2.3892 13.5352 -22.0663 -2.6510 -0.0000 -0.0000 11.2806 0.9878 32.8401 0.5357 -7.1250 0.0000 -0.0000 -35.3333 59.1524 -13.2358 0.0000 0.0000 0.0000 84.5551 -6.0663 -0.2288 -17.5988 27.6404 -4.3615 0.0000 -0.0000 -16.3068 -11.1636 16.1862 -3.1488 7.1250 -0.0000 -0.0000 11.0692 -13.7158 8.2883
10.4649 17.7644 -18.1731 -8.0305 -37.3898 7.2412 0.0000 0.0000 0.0000 -16.0527 -3.0549 -11.8844 3.9301 12.0669 35.9689 1.8860 0.4906 -26.1703 0.1080 2.1188 5.8340 0.0000 0.0000 0.0000 22.6343 8.8829 -12.3181 -3.9208 -12.0542 35.9240 -1.2114 -2.7393 -21.9418 -0.3068 -3.5609 9.8445 -2.0867 -0.3238 4.2265 4.2510 -0.4211 -1.3196 5.6314 -0.1188 -3.6947 -17.6368 -8.8820 -10.8892 13.9959 -11.7577 16.3441 6.2556 -5.5449 8.7947 0.0000 -0.0000 0.0000 -89.2035 0.3667 2.4847 13.5052 -22.0230 -2.6397 -0.0000 -0.0000 11.1396 0.8155 32.8165 0.4420 -7.1250 0.0000 -0.0000 -35.4763 59.0940 -13.2475 0.0000 -0.0000 0.0000 85.1161 -5.7468 -0.1047 -17.7455 27.8300 -4.4298 0.0000 -0.0000 -16.3323 -11.2832 15.9744 -3.1428 7.1250 -0.0000 -0.0000 10.9917 -13.9175 8.1802
10.4623 17.7649 -18.1704 -7.9296 -37.4993 7.1881 0.0000 0.0000 0.0000 -16.2116 -3.2526 -11.7566 3.9199 12.0530 35.9199 1.8927 0.6933 -26.2872 0.1261 2.2891 6.3054 0.0000 0.0000 0.0000 22.5389 8.9991 -12.2969 -3.9285 -12.0647 35.9612 -1.2170 -2.7391 -21.9893 -0.3225 -3.6502 10.0946 -1.7611 -0.3127 3.9121 3.9044 -0.4015 -1.1410 5.0694 -0.1294 -3.3362 -17.1291 -8.8976 -11.0637 13.9546 -11.8212 16.1997 6.1401 -5.5395 8.7526 0.0000 -0.0000 0.0000 -88.6000 0.0034 2.6609 13.4307 -21.9150 -2.6118 -0.0000 -0.0000 11.0528 1.0383 32.6253 0.5598 -7.1250 0.0000 -0.0000 -35.0755 58.9888 -12.9829 0.0000 -0.0000 0.0000 85.6942 -5.3738 -0.1430 -17.8957 28.0234 -4.5001 0.0000 -0.0000 -16.3911 -11.1043 15.9225 -3.0821 7.1250 -0.0000 -0.0000 11.1114 -13.9829 8.2571
10.4599 17.7644 -18.1704 -7.9140 -37.5990 7.2069 0.0000 0.0000 0.0000 -16.2522 -3.3957 -11.7117 3.9090 12.0384 35.8678 1.9001 0.7142 -26.3461 0.1578 2.5599 7.0557 0.0000 0.0000 0.0000 22.5200 9.1192 -12.3102 -3.9358 -12.0744 35.9957 -1.2210 -2.7408 -22.0234 -0.3394 -3.7440 10.3574 -1.8108 -0.2893 3.9115 3.9355 -0.3709 -1.1925 5.1293 -0.1110 -3.3921 -17.0386 -8.9191 -11.0986 13.7935 -11.8202 16.1331 6.0652 -5.5442 8.7197 -0.0000 0.0000 0.0000 -88.5971 0.0160 2.8002 13.3672 -21.8229 -2.5882 -0.0000 -0.0000 10.9410 1.5889 32.2607 0.8482 -7.1250 0.0000 -0.0000 -34.1942 58.8136 -12.4588 -0.0000 0.0000 0.0000 85.6418 -5.3994 -0.0050 -18.0514 28.2230 -4.5735 0.0000 -0.0000 -16.4648 -11.1177 16.0696 -3.1136 7.1250 -0.0000 -0.0000 11.1009 -13.8355 8.2843
10.4586 17.7635 -18.1689 -8.0653 -37.6215 7.3317 0.0000 0.0000 0.0000 -16.1089 -3.4081 -11.7570 3.9103 12.0401 35.8738 1.8981 0.7208 -26.3348 0.1498 2.4938 6.8723 0.0000 0.0000 0.0000 22.6526 9.1588 -12.3389 -3.9374 -12.0766 36.0034 -1.2207 -2.7342 -22.0180 -0.3325 -3.7057 10.2501 -2.0049 -0.3038 4.1051 4.2308 -0.3892 -1.3764 5.5598 -0.1042 -3.6891 -17.2540 -8.9044 -11.1384 13.6582 -11.7325 16.2262 6.0655 -5.5250 8.7486 0.0000 0.0000 0.0000 -89.0225 0.3324 2.7885 13.3971 -21.8663 -2.5993 -0.0000 -0.0000 10.8154 1.7208 32.2607 0.9187 -7.1250 0.0000 -0.0000 -34.0664 58.8432 -12.4298 0.0000 0.0000 0.0000 85.1858 -5.6206 0.4562 -18.2163 28.4332 -4.6518 0.0000 -0.0000 -16.8005 -11.4083 16.0654 -3.1961 7.1250 -0.0000 -0.0000 10.9076 -13.8171 8.1387
10.4578 17.7647 -18.1680 -8.2989 -37.5987 7.5209 0.0000 0.0000 0.0000 -15.8838 -3.3608 -11.8234 3.9114 12.0415 35.8790 1.8819 0.7932 -26.2484 0.1363 2.3798 6.5564 0.0000 0.0000 0.0000 22.8691 9.2213 -12.3743 -3.9404 -12.0807 36.0180 -1.2314 -2.6608 -22.0732 -0.3829 -3.9738 11.0028 -2.0213 -0.3506 4.2311 4.4605 -0.4434 -1.5286 5.8218 -0.1214 -3.9120 -17.4510 -8.8709 -11.1279 13.5242 -11.6335 16.3452 6.0668 -5.5020 8.7739 0.0000 -0.0000 0.0000 -89.3633 0.6792 2.7169 13.5292 -22.0577 -2.6487 -0.0000 -0.0000 10.7121 1.7959 32.3176 0.9603 -7.1250 0.0000 -0.0000 -34.0475 58.9069 -12.4750 0.0000 -0.0000 0.0000 84.8353 -5.8011 1.0744 -18.3963 28.6617 -4.7378 0.0000 -0.0000 -17.1397 -11.6021 15.7847 -3.1966 7.1250 -0.0000 -0.0000 10.7808 -14.0821 7.9790
10.4555 17.7645 -18.1647 -8.1228 -37.6351 7.4046 0.0000 0.0000 0.0000 -16.0470 -3.3015 -11.8055 3.9135 12.0445 35.8894 1.8810 0.8303 -26.2555 0.1420 2.4289 6.6927 0.0000 0.0000 0.0000 22.7176 9.2665 -12.3304 -3.9435 -12.0848 36.0327 -1.2368 -2.6398 -22.1089 -0.3972 -4.0467 11.2082 -2.1748 -0.3640 4.2322 4.4520 -0.4693 -1.5640 5.9036 -0.1289 -3.9457 -17.6463 -8.8976 -11.0214 13.5753 -11.6592 16.3085 6.1155 -5.5260 8.7628 -0.0000 -0.0000 0.0000 -89.4521 0.8413 2.7489 13.6613 -22.2484 -2.6985 -0.0000 -0.0000 10.6622 1.9030 32.3451 1.0184 -7.1250 0.0000 -0.0000 -33.9695 58.9537 -12.4810 -0.0000 -0.0000 0.0000 84.7667 -5.7919 1.2914 -18.5116 28.8073 -4.7932 0.0000 -0.0000 -17.0347 -11.4986 15.7240 -3.1555 7.1250 -0.0000 -0.0000 10.8506 -14.1505 8.0165
10.4528 17.7628 -18.1598 -7.8629 -37.6765 7.1814 0.0000 0.0000 0.0000 -16.3078 -3.2965 -11.7000 3.9168 12.0489 35.9050 1.8942 0.8689 -26.3607 0.1384 2.3977 6.6061 0.0000 0.0000 0.0000 22.4858 9.2260 -12.2428 -3.9459 -12.0881 36.0443 -1.2385 -2.6606 -22.1331 -0.3739 -3.9272 10.8721 -2.1943 -0.3698 4.0876 4.2371 -0.4867 -1.4255 5.6825 -0.1467 -3.7183 -17.4843 -8.9245 -11.0734 13.7294 -11.7346 16.1513 6.1287 -5.5364 8.7320 0.0000 -0.0000 0.0000 -89.1544 0.5997 2.8369 13.6495 -22.2314 -2.6941 -0.0000 -0.0000 10.6590 1.9757 32.3812 1.0584 -7.1250 0.0000 -0.0000 -33.9333 58.9999 -12.5040 0.0000 -0.0000 0.0000 85.0906 -5.4811 1.1929 -18.5779 28.8908 -4.8252 0.0000 -0.0000 -16.7309 -11.2607 16.0140 -3.1440 7.1250 -0.0000 -0.0000 11.0063 -13.8798 8.2004
10.4509 17.7625 -18.1622 -8.0346 -37.5735 7.3071 0.0000 0.0000 0.0000 -16.1078 -3.2809 -11.7618 3.9180 12.0505 35.9108 1.8879 0.7458 -26.2731 0.1397 2.4089 6.6373 0.0000 0.0000 0.0000 22.6654 9.2058 -12.2748 -3.9511 -12.0951 36.0693 -1.2402 -2.7441 -22.1869 -0.3819 -3.9686 10.9884 -1.5763 -0.4161 3.6475 3.8679 -0.5331 -1.1219 4.9295 -0.2032 -3.1553 -16.9567 -8.9501 -11.3054 14.0039 -11.8659 15.9238 6.1100 -5.5347 8.7040 0.0000 -0.0000 0.0000 -88.3392 -0.1077 3.0249 13.4643 -21.9637 -2.6244 -0.0000 -0.0000 10.5024 2.0981 32.3698 1.1236 -7.1250 0.0000 -0.0000 -33.8035 59.0180 -12.4640 0.0000 -0.0000 0.0000 85.8759 -4.8139 0.8264 -18.5928 28.9095 -4.8324 0.0000 -0.0000 -16.2629 -11.0380 16.3408 -3.1414 7.1250 -0.0000 -0.0000 11.1511 -13.5717 8.3867
10.4497 17.7627 -18.1657 -8.1616 -37.4314 7.4715 0.0000 0.0000 0.0000 -15.9255 -3.3439 -11.8912 3.9187 12.0514 35.9140 1.8782 0.5666 -26.1426 0.1682 2.6419 7.2832 0.0000 0.0000 0.0000 22.8046 9.2027 -12.3897 -3.9563 -12.1020 36.0937 -1.2330 -2.8577 -22.1813 -0.3735 -3.9253 10.8665 -1.8193 -0.3815 3.9002 4.2037 -0.4844 -1.3868 5.4279 -0.1588 -3.5745 -17.2761 -9.0177 -11.2245 13.8558 -11.8960 16.0511 6.1086 -5.5827 8.7485 0.0000 -0.0000 0.0000 -88.7790 0.0327 3.1105 13.3429 -21.7876 -2.5792 -0.0000 -0.0000 10.6028 2.0064 32.4251 1.0762 -7.1250 0.0000 -0.0000 -33.9452 59.0430 -12.5450 0.0000 -0.0000 0.0000 85.3854 -5.1250 0.9188 -18.7531 29.1107 -4.9101 0.0000 -0.0000 -16.5625 -11.1715 16.3418 -3.1805 7.1250 -0.0000 -0.0000 11.0625 -13.5603 8.3201
